<?xml version="1.0" standalone="no"?>
<!DOCTYPE svg PUBLIC "-//W3C//DTD SVG 20010904//EN"
 "http://www.w3.org/TR/2001/REC-SVG-20010904/DTD/svg10.dtd">
<svg version="1.0" xmlns="http://www.w3.org/2000/svg"
 width="800.000000pt" height="419.000000pt" viewBox="0 0 800.000000 419.000000"
 preserveAspectRatio="xMidYMid meet">

<g transform="translate(0.000000,419.000000) scale(0.100000,-0.100000)"
fill="#000000" stroke="none">
<path d="M0 2095 l0 -2095 1911 0 c1602 0 1910 2 1906 14 -7 18 -52 171 -207
701 -72 248 -144 493 -160 545 -16 52 -56 187 -89 300 -33 113 -115 392 -182
620 -67 228 -127 435 -134 460 -7 25 -52 178 -100 340 -47 162 -136 464 -196
670 -61 206 -122 412 -135 458 l-25 82 -1295 0 -1294 0 0 -2095z"/>
<path d="M6707 2513 c-4 -3 -7 -19 -7 -35 0 -23 -7 -32 -32 -43 -29 -12 -35
-11 -60 7 -32 22 -50 19 -97 -21 -33 -27 -34 -30 -21 -60 19 -47 0 -77 -55
-85 -41 -7 -42 -8 -57 -60 l-15 -54 34 -26 c43 -35 44 -70 3 -94 -34 -20 -34
-20 -11 -87 16 -46 20 -50 53 -53 52 -4 74 -33 61 -77 -11 -34 -10 -35 36 -65
56 -35 61 -36 92 -11 39 30 76 18 91 -30 l11 -39 62 0 c62 0 63 0 69 32 12 61
51 76 99 37 30 -23 45 -18 91 30 28 29 29 33 18 68 -15 49 5 73 59 73 37 0 38
1 53 54 21 70 21 69 -14 89 -41 25 -41 68 -1 96 l28 20 -21 61 c-20 60 -22 61
-52 55 -24 -4 -35 0 -53 19 -21 22 -22 28 -11 61 7 20 10 38 8 39 -1 2 -25 17
-53 34 l-50 31 -21 -20 c-15 -14 -32 -19 -55 -17 -29 3 -34 7 -42 41 l-9 37
-62 0 c-35 0 -66 -3 -69 -7z m173 -135 c74 -25 143 -88 181 -166 32 -65 32
-170 1 -227 -42 -75 -57 -95 -92 -121 -64 -48 -110 -64 -186 -64 -59 0 -81 5
-132 30 -112 57 -166 145 -166 270 1 106 38 179 122 241 84 62 166 73 272 37z"/>
<path d="M6805 2161 c-3 -12 -3 -30 0 -41 6 -20 7 -20 35 2 32 26 39 41 14 31
-10 -4 -22 1 -30 11 -11 16 -13 16 -19 -3z"/>
<path d="M4703 2343 c-7 -2 -13 -9 -13 -14 0 -6 5 -7 10 -4 6 3 10 2 10 -4 0
-5 -4 -13 -10 -16 -12 -8 -14 -225 -2 -225 5 0 8 47 7 104 -2 91 5 141 18 126
2 -3 23 -47 47 -97 24 -51 48 -93 52 -93 5 0 7 -4 4 -8 -8 -13 11 -35 26 -30
16 7 25 253 9 262 -6 4 -11 -37 -13 -109 -2 -70 1 -117 7 -119 6 -3 4 -5 -3
-5 -8 -1 -10 -6 -6 -13 4 -7 3 -9 -1 -5 -5 4 -10 13 -11 20 -3 22 -63 145 -73
152 -6 3 -11 14 -11 24 0 25 -32 60 -47 54z"/>
<path d="M5015 2342 c-81 -28 -118 -118 -80 -192 21 -40 74 -70 125 -70 36 0
48 6 81 39 32 32 39 45 39 77 l-1 39 -14 -40 c-21 -58 -66 -95 -116 -95 -35 0
-47 6 -75 36 -28 29 -34 43 -34 80 0 38 5 50 33 77 17 18 41 33 52 34 34 5 84
-7 99 -22 8 -9 17 -11 20 -6 17 27 -80 60 -129 43z"/>
<path d="M5247 2343 c-10 -17 -8 -263 3 -263 6 0 10 48 10 135 0 127 -2 146
-13 128z"/>
<path d="M5327 2343 c-12 -11 -8 -263 4 -263 7 0 9 40 7 118 -3 105 -1 118 14
119 11 1 16 -5 15 -18 -1 -10 21 -64 48 -119 35 -71 54 -100 67 -100 11 0 18
7 18 19 0 24 -16 36 -26 20 -5 -8 -3 -9 6 -4 9 5 11 4 6 -3 -11 -18 -25 -14
-23 6 1 20 -77 188 -101 215 -16 18 -25 21 -35 10z"/>
<path d="M5480 2246 c0 -64 4 -106 10 -106 6 0 10 7 11 15 2 24 1 64 -1 73 -1
4 -1 30 0 58 1 29 -3 55 -9 59 -8 4 -11 -27 -11 -99z"/>
<path d="M6010 2339 c0 -5 -4 -8 -9 -5 -4 3 -15 -2 -24 -12 -12 -13 -16 -42
-17 -122 -2 -143 2 -148 9 -12 5 97 9 116 25 128 43 31 96 4 96 -48 0 -26 -32
-48 -70 -48 -36 0 -21 -17 16 -18 52 -2 62 -14 58 -72 -3 -39 0 -50 11 -50 11
0 15 12 15 48 0 45 -10 75 -24 73 -17 -2 -17 1 -2 24 25 37 20 80 -10 104 -28
22 -74 28 -74 10z m67 -125 c-3 -3 -12 -4 -19 -1 -8 3 -5 6 6 6 11 1 17 -2 13
-5z"/>
<path d="M4540 2323 c-31 -21 -50 -45 -44 -55 3 -5 0 -8 -5 -8 -6 0 -11 -21
-11 -50 0 -43 4 -54 36 -85 19 -19 39 -33 44 -30 5 3 11 1 15 -5 8 -13 52 -13
60 0 3 6 0 11 -7 12 -7 0 -17 2 -23 3 -5 2 -17 3 -26 4 -15 1 -90 61 -76 61 4
0 3 10 -2 23 -9 22 -8 22 65 19 50 -3 74 -1 74 7 0 7 -25 11 -70 11 -79 0 -86
8 -47 54 16 19 37 29 65 33 23 3 42 10 42 14 0 16 -65 10 -90 -8z"/>
<path d="M5590 2301 c-35 -33 -40 -44 -40 -82 0 -48 29 -106 58 -115 9 -3 24
-9 32 -13 21 -11 61 -8 58 4 -2 5 -8 9 -15 7 -29 -7 -79 27 -100 67 -20 38
-21 44 -7 76 8 19 14 38 14 41 -2 11 52 34 81 34 15 0 30 4 33 9 3 5 -12 9
-34 9 -33 1 -47 -6 -80 -37z"/>
<path d="M5806 2321 c-16 -11 -35 -30 -42 -43 -18 -32 -17 -103 1 -122 9 -8
15 -19 14 -23 -2 -15 46 -43 84 -50 28 -4 37 -2 37 8 0 9 -13 15 -37 16 -73 4
-120 91 -86 161 16 33 50 52 93 52 17 0 30 5 30 10 0 17 -64 11 -94 -9z"/>
<path d="M6177 2322 c-10 -10 -17 -28 -17 -39 0 -21 35 -59 60 -65 15 -3 31
-14 60 -40 10 -9 21 -13 25 -10 3 4 1 -7 -5 -23 -6 -17 -11 -32 -11 -35 1 -3
-28 -5 -64 -5 -49 1 -65 -3 -65 -13 0 -11 14 -13 65 -9 76 5 95 18 95 62 0 36
-16 53 -77 84 -84 42 -77 91 12 91 30 0 55 5 55 10 0 6 -26 10 -58 10 -44 0
-63 -5 -75 -18z"/>
<path d="M5580 2220 c0 -6 28 -10 65 -10 37 0 65 4 65 10 0 6 -28 10 -65 10
-37 0 -65 -4 -65 -10z"/>
<path d="M5780 2220 c0 -6 27 -10 60 -10 33 0 60 4 60 10 0 6 -27 10 -60 10
-33 0 -60 -4 -60 -10z"/>
<path d="M5070 2209 c0 -5 20 -7 45 -6 25 1 45 5 45 10 0 4 -20 6 -45 5 -25 0
-45 -5 -45 -9z"/>
<path d="M4484 1976 c1 -54 5 -71 18 -80 13 -8 23 -8 38 2 16 10 24 10 40 0
22 -14 50 -3 58 23 2 8 -2 6 -10 -5 -8 -10 -23 -17 -34 -14 -16 3 -20 14 -25
73 l-5 70 -2 -61 c-2 -65 -16 -88 -49 -82 -15 3 -19 17 -24 73 l-6 70 1 -69z"/>
<path d="M5142 1984 c-2 -48 2 -65 16 -75 15 -12 16 -12 5 1 -7 9 -14 43 -16
75 l-3 60 -2 -61z"/>
<path d="M5446 2024 c-12 -11 -16 -33 -14 -77 l1 -62 6 63 c4 47 11 67 25 78
11 8 15 14 9 14 -7 0 -19 -7 -27 -16z"/>
<path d="M5750 2030 c-8 -5 -12 -12 -9 -15 4 -3 12 1 19 10 14 17 11 19 -10 5z"/>
<path d="M5801 2023 c7 -12 15 -20 18 -17 3 2 -3 12 -13 22 -17 16 -18 16 -5
-5z"/>
<path d="M6182 2018 c7 -15 15 -23 17 -17 2 6 -4 18 -13 27 -15 15 -15 15 -4
-10z"/>
<path d="M4980 2015 c-19 -22 -8 -25 13 -3 9 10 13 18 8 18 -5 0 -14 -7 -21
-15z"/>
<path d="M5082 2013 c9 -10 18 -25 21 -33 4 -10 6 -11 6 -2 1 20 -18 52 -31
52 -7 0 -5 -7 4 -17z"/>
<path d="M5222 2010 c0 -14 2 -19 5 -12 2 6 2 18 0 25 -3 6 -5 1 -5 -13z"/>
<path d="M5511 2010 c-1 -15 -6 -31 -13 -38 -9 -9 -9 -12 0 -12 13 0 26 43 19
62 -3 7 -6 2 -6 -12z"/>
<path d="M5566 2008 c-9 -12 -16 -32 -16 -43 1 -14 5 -10 16 15 8 19 20 38 27
42 9 6 9 8 0 8 -6 0 -19 -10 -27 -22z"/>
<path d="M5682 2000 c12 -16 23 -30 25 -30 2 0 -3 14 -12 30 -9 17 -20 30 -26
30 -5 0 0 -13 13 -30z"/>
<path d="M5937 2006 c10 -13 19 -23 21 -21 7 6 -19 45 -29 45 -5 0 -2 -11 8
-24z"/>
<path d="M6013 2018 c-17 -23 -25 -44 -9 -24 9 11 22 23 28 28 9 5 9 8 2 8 -6
0 -16 -6 -21 -12z"/>
<path d="M6114 2016 c-3 -7 -4 -40 -2 -72 l3 -59 5 73 c5 72 4 84 -6 58z"/>
<path d="M6233 2014 c-3 -8 -2 -19 3 -24 5 -5 9 1 9 16 0 28 -3 30 -12 8z"/>
<path d="M4763 1945 c0 -33 2 -45 4 -27 2 18 2 45 0 60 -2 15 -4 0 -4 -33z"/>
<path d="M5222 1960 c0 -14 2 -19 5 -12 2 6 2 18 0 25 -3 6 -5 1 -5 -13z"/>
<path d="M5785 1970 c-19 -8 -19 -9 3 -9 12 -1 22 4 22 9 0 6 -1 10 -2 9 -2 0
-12 -4 -23 -9z"/>
<path d="M6155 1971 c-19 -8 -18 -9 5 -12 20 -3 26 -11 31 -39 l6 -35 2 32 c0
17 -4 35 -9 38 -6 4 -8 11 -5 16 7 11 -2 11 -30 0z"/>
<path d="M6284 1957 c20 -16 27 -29 23 -41 -4 -10 -3 -15 3 -11 21 13 9 45
-22 61 l-33 16 29 -25z"/>
<path d="M4975 1933 c8 -18 20 -33 26 -33 6 0 6 4 -1 13 -6 6 -17 21 -26 32
-13 17 -12 15 1 -12z"/>
<path d="M5680 1928 c-15 -21 -17 -28 -6 -19 16 13 41 51 33 51 -2 0 -14 -15
-27 -32z"/>
<path d="M5990 1955 c0 -16 30 -55 42 -55 7 0 5 6 -4 13 -8 6 -20 21 -26 32
-6 11 -12 15 -12 10z"/>
<path d="M5518 1927 c-3 -19 -2 -25 4 -19 6 6 8 18 6 28 -3 14 -5 12 -10 -9z"/>
<path d="M5816 1937 c3 -10 9 -15 12 -12 3 3 0 11 -7 18 -10 9 -11 8 -5 -6z"/>
<path d="M5946 1935 c-9 -26 -7 -32 5 -12 6 10 9 21 6 23 -2 3 -7 -2 -11 -11z"/>
<path d="M5560 1932 c0 -14 48 -47 57 -38 3 3 1 6 -5 6 -6 0 -20 10 -32 22
-11 12 -20 17 -20 10z"/>
<path d="M5079 1913 c-13 -16 -12 -17 4 -4 9 7 17 15 17 17 0 8 -8 3 -21 -13z"/>
<path d="M5216 1913 c-6 -14 -5 -15 5 -6 7 7 10 15 7 18 -3 3 -9 -2 -12 -12z"/>
<path d="M6268 1893 c7 -3 16 -2 19 1 4 3 -2 6 -13 5 -11 0 -14 -3 -6 -6z"/>
<path d="M5850 1841 c-5 -11 -10 -33 -10 -50 0 -26 4 -31 25 -31 14 0 25 5 25
10 0 6 -4 10 -10 10 -12 0 -13 40 -1 59 16 25 31 1 31 -50 0 -68 -14 -93 -48
-84 -22 5 -24 4 -13 -9 32 -39 78 -5 87 65 8 64 -8 99 -45 99 -20 0 -34 -7
-41 -19z"/>
<path d="M6120 1830 c0 -23 -6 -33 -24 -39 -14 -6 -26 -21 -29 -38 -9 -39 -23
-57 -37 -48 -12 7 -10 32 5 69 6 14 4 17 -11 14 -10 -1 -21 -14 -24 -27 -9
-38 -31 -39 -24 -2 4 18 2 31 -3 31 -12 0 -25 -83 -17 -105 9 -21 24 -19 24 4
0 11 5 23 10 26 6 3 10 -1 10 -10 0 -22 27 -30 46 -14 13 10 17 10 24 -1 5 -8
15 -10 26 -5 23 9 126 11 141 2 17 -11 96 7 101 23 5 13 3 13 -13 0 -17 -14
-17 -12 -13 24 4 32 1 40 -18 48 -34 16 -52 4 -64 -41 -11 -41 -24 -52 -33
-28 -2 6 0 24 4 39 4 16 3 30 -2 33 -16 10 -29 -5 -29 -35 0 -31 -18 -50 -29
-31 -4 7 -4 33 0 59 12 69 11 82 -6 82 -10 0 -15 -10 -15 -30z m-7 -97 c-6
-35 -17 -43 -27 -18 -7 18 15 69 25 58 4 -5 5 -23 2 -40z m172 -2 c-4 -18 -13
-31 -21 -31 -11 0 -14 6 -9 23 4 12 9 30 12 41 9 31 26 1 18 -33z"/>
<path d="M6182 1828 c6 -18 28 -21 28 -4 0 9 -7 16 -16 16 -9 0 -14 -5 -12
-12z"/>
<path d="M4730 1380 c0 -64 3 -80 15 -80 12 0 15 16 15 80 0 64 -3 80 -15 80
-12 0 -15 -16 -15 -80z"/>
<path d="M4804 1446 c-3 -7 -4 -42 -2 -77 l3 -64 63 -3 c38 -2 62 1 62 8 0 5
-20 10 -45 10 -43 0 -45 1 -45 30 0 28 2 30 40 30 22 0 40 5 40 10 0 6 -18 10
-40 10 -33 0 -40 3 -40 20 0 17 7 20 45 20 25 0 45 5 45 10 0 16 -120 13 -126
-4z"/>
<path d="M4950 1450 c0 -5 11 -10 25 -10 23 0 24 -3 27 -67 2 -53 6 -68 18
-68 12 0 16 15 18 68 3 64 4 67 27 67 14 0 25 5 25 10 0 6 -30 10 -70 10 -40
0 -70 -4 -70 -10z"/>
<path d="M5204 1446 c-3 -7 -4 -42 -2 -77 l3 -64 52 -3 c66 -4 93 19 93 78 0
57 -26 80 -90 80 -33 0 -52 -5 -56 -14z m94 -18 c7 -7 12 -28 12 -48 0 -42
-14 -60 -47 -60 -21 0 -23 4 -23 60 0 56 2 60 23 60 13 0 28 -5 35 -12z"/>
<path d="M5433 1448 c-15 -20 -53 -115 -53 -132 0 -23 28 -20 35 4 5 15 15 20
40 20 24 0 34 -5 38 -20 3 -11 13 -20 22 -20 21 0 17 21 -20 103 -24 56 -43
69 -62 45z m34 -84 c-3 -3 -12 -4 -20 -2 -11 2 -12 9 -5 28 l10 25 11 -23 c5
-12 8 -25 4 -28z"/>
<path d="M5557 1453 c-8 -14 50 -148 65 -151 19 -4 30 11 56 77 26 63 27 81 8
81 -8 0 -22 -22 -32 -50 -10 -27 -21 -50 -25 -50 -4 0 -15 23 -24 50 -15 45
-36 63 -48 43z"/>
<path d="M5727 1453 c-8 -14 50 -148 65 -151 19 -4 30 11 56 77 26 63 27 81 8
81 -8 0 -22 -22 -32 -50 -10 -27 -21 -50 -25 -50 -4 0 -15 23 -24 50 -15 45
-36 63 -48 43z"/>
<path d="M5996 1439 c-20 -16 -26 -29 -26 -60 0 -56 29 -83 83 -76 37 5 67 27
67 49 0 16 -28 7 -42 -14 -11 -16 -20 -20 -40 -15 -35 9 -47 57 -24 92 20 31
49 32 69 3 11 -18 18 -20 27 -11 9 8 7 16 -9 32 -27 27 -71 27 -105 0z"/>
<path d="M6150 1380 c0 -64 3 -80 15 -80 10 0 15 10 15 31 0 37 16 69 35 69
10 0 15 -15 17 -47 2 -35 7 -48 18 -48 11 0 16 13 18 43 4 54 -11 74 -52 70
-26 -2 -32 1 -34 20 -2 12 -10 22 -18 22 -11 0 -14 -17 -14 -80z"/>
<path d="M6610 1441 c0 -11 -6 -22 -12 -24 -10 -4 -10 -7 -1 -14 6 -5 13 -29
15 -53 3 -39 6 -45 27 -48 13 -2 28 1 34 7 8 8 5 11 -11 11 -19 0 -22 5 -22
39 0 22 6 42 13 45 10 5 10 7 0 12 -7 3 -13 14 -13 25 0 10 -7 19 -15 19 -8 0
-15 -9 -15 -19z"/>
<path d="M6314 1406 c-24 -18 -10 -34 16 -18 24 15 50 16 50 2 0 -11 -7 -14
-52 -24 -21 -5 -28 -12 -28 -31 0 -28 -3 -27 68 -30 l52 -2 0 43 c0 25 -6 49
-16 58 -19 20 -64 21 -90 2z m64 -63 c-4 -23 -48 -31 -48 -10 0 9 6 18 13 20
25 11 38 7 35 -10z"/>
<path d="M6450 1334 c0 -68 3 -84 15 -84 10 0 15 10 15 30 0 27 3 30 24 24 41
-10 66 11 66 56 0 46 -15 58 -77 57 l-43 0 0 -83z m85 46 c14 -44 -15 -76 -43
-48 -23 23 -7 68 24 68 7 0 16 -9 19 -20z"/>
<path d="M6706 1407 c-13 -9 -17 -23 -14 -52 2 -32 8 -41 29 -49 33 -11 79 0
79 19 0 18 -5 19 -29 3 -10 -6 -26 -8 -35 -5 -29 11 -17 26 26 29 48 4 58 18
29 47 -24 24 -59 27 -85 8z m62 -24 c2 -8 -6 -13 -22 -13 -25 0 -33 10 -19 24
10 10 36 3 41 -11z"/>
<path d="M6847 1413 c-11 -11 -8 -101 4 -109 16 -10 29 15 29 59 0 33 3 37 26
37 14 0 23 4 19 10 -7 11 -68 14 -78 3z"/>
<path d="M5100 1360 c0 -5 16 -10 35 -10 19 0 35 5 35 10 0 6 -16 10 -35 10
-19 0 -35 -4 -35 -10z"/>
</g>
</svg>
